<?xml version="1.0" standalone="no"?>
<!DOCTYPE svg PUBLIC "-//W3C//DTD SVG 20010904//EN"
 "http://www.w3.org/TR/2001/REC-SVG-20010904/DTD/svg10.dtd">
<svg version="1.0" xmlns="http://www.w3.org/2000/svg"
 width="239.000000pt" height="239.000000pt" viewBox="0 0 239.000000 239.000000"
 preserveAspectRatio="xMidYMid meet">
<metadata>
Created by potrace 1.11, written by Peter Selinger 2001-2013
</metadata>
<g transform="translate(0.000000,239.000000) scale(0.100000,-0.100000)"
fill="#000000" stroke="none">
<path d="M1095 2301 c-44 -26 -255 -148 -468 -271 -213 -122 -397 -230 -409
-239 -20 -17 -20 -22 -19 -581 0 -311 1 -573 1 -583 0 -10 8 -21 18 -24 9 -4
19 -9 22 -13 5 -6 268 -160 274 -160 2 0 40 -22 86 -50 46 -27 89 -50 97 -50
7 0 13 -4 13 -10 0 -5 6 -10 14 -10 8 0 21 -6 28 -14 8 -7 41 -26 73 -42 33
-15 78 -40 100 -55 22 -14 62 -37 90 -49 27 -12 67 -34 90 -48 70 -45 109 -62
127 -56 10 3 18 9 18 14 0 4 34 25 76 46 43 21 82 43 88 49 6 5 46 28 89 50
43 22 87 48 97 57 36 33 157 107 206 126 55 21 385 209 396 226 4 6 7 272 5
591 l-2 579 -140 82 c-677 392 -849 486 -881 483 -5 -1 -45 -22 -89 -48z m182
-99 c54 -63 270 -307 421 -476 34 -38 62 -73 62 -78 0 -4 -250 -8 -555 -8
-351 0 -555 4 -555 10 0 11 31 47 280 324 25 28 63 71 85 96 106 123 180 200
191 200 7 0 39 -31 71 -68z m-257 -36 c0 -8 -24 -42 -52 -74 -29 -33 -92 -104
-140 -159 -48 -54 -122 -138 -165 -188 -45 -51 -88 -91 -100 -93 -21 -3 -39 4
-181 69 -35 16 -68 29 -73 29 -5 0 -9 6 -9 14 0 11 35 33 225 142 22 12 137
79 255 148 118 68 221 125 228 125 6 1 12 -5 12 -13z m557 -87 c87 -50 217
-125 288 -167 72 -41 153 -88 180 -103 45 -25 72 -59 46 -59 -6 0 -41 -14 -78
-31 -112 -52 -154 -69 -168 -69 -7 0 -53 46 -102 103 -50 56 -126 142 -169
191 -43 49 -103 116 -131 149 -92 106 -71 104 134 -14z m-1179 -417 c59 -27
115 -52 126 -56 11 -4 16 -13 13 -24 -5 -17 -95 -271 -163 -462 -21 -58 -49
-138 -63 -179 -49 -140 -51 -123 -51 343 0 375 2 426 15 426 9 0 64 -22 123
-48z m1752 -377 c0 -468 -3 -491 -52 -347 -15 42 -50 142 -78 222 -28 80 -63
179 -77 220 -14 41 -36 104 -49 139 -13 35 -24 67 -24 71 0 4 21 17 48 28 26
12 83 37 127 56 44 20 86 36 93 36 9 0 12 -92 12 -425z m-374 279 c-3 -9 -41
-77 -85 -152 -43 -76 -92 -162 -109 -192 -16 -30 -76 -136 -132 -235 -56 -99
-132 -233 -169 -297 -36 -65 -71 -118 -78 -118 -10 0 -48 61 -128 205 -15 28
-66 118 -113 200 -47 83 -96 170 -110 195 -14 25 -69 123 -124 218 -54 95 -98
177 -98 183 0 5 220 9 576 9 523 0 576 -1 570 -16z m-1105 -175 c41 -74 134
-237 206 -364 72 -126 141 -248 153 -270 12 -22 42 -75 66 -117 43 -76 53
-108 34 -108 -5 0 -31 4 -57 9 -26 5 -88 14 -138 21 -49 6 -117 15 -150 20
-33 5 -96 14 -140 20 -44 6 -107 15 -140 20 -33 5 -99 15 -147 21 -56 8 -88
17 -88 24 0 7 23 77 51 156 101 289 111 315 131 374 11 33 40 116 65 185 24
69 46 131 48 138 10 28 33 1 106 -129z m1169 121 c6 -11 38 -97 71 -192 96
-275 135 -384 184 -521 25 -71 45 -132 45 -136 0 -4 -39 -13 -87 -20 -49 -6
-115 -16 -148 -21 -33 -5 -96 -14 -140 -20 -44 -6 -109 -15 -145 -20 -36 -5
-103 -14 -150 -20 -47 -7 -107 -16 -133 -21 -62 -12 -77 -11 -77 2 0 6 29 61
64 122 35 62 111 195 169 297 58 102 120 212 139 246 92 169 184 324 190 324
4 0 12 -9 18 -20z m-1336 -940 c34 -5 131 -19 216 -30 85 -11 182 -25 215 -30
33 -5 97 -14 143 -21 61 -9 85 -16 92 -30 6 -10 10 -88 10 -173 0 -143 -1
-156 -18 -156 -10 0 -110 53 -222 119 -113 65 -275 158 -360 208 -90 52 -156
96 -158 106 -4 20 1 20 82 7z m1486 -4 c0 -7 -123 -85 -272 -171 -150 -87
-314 -182 -363 -212 -50 -29 -99 -53 -108 -53 -15 0 -17 17 -17 173 l0 173 98
13 c53 7 122 16 152 21 91 14 190 28 285 41 50 6 110 15 135 19 70 12 90 11
90 -4z"/>
</g>
</svg>
